<svg xmlns="http://www.w3.org/2000/svg" xmlns:xlink="http://www.w3.org/1999/xlink" id="Layer_1" x="0" y="0" version="1.1" viewBox="0 0 1190.6 841.9" xml:space="preserve" style="enable-background:new 0 0 1190.6 841.9"><style type="text/css">.st0{display:none;fill:#fff}.st1{fill:#e74c3c}.st2{fill:#fff}.st3{fill:#3bffbe}.st4{fill:#e5e5e5}.st5{fill:#dbdbdb}.st6{fill:#efefef}.st7,.st8{fill:none;stroke:#b5b5b5;stroke-miterlimit:10}.st8{stroke:#3bffbe}.st9{fill:#231f20}.st10{fill:#656666}.st11{fill:#404041}.st12{fill:#f9ed49;stroke:#656666}.st13{fill:#ec1c24}.st13,.st14,.st15{stroke:#656666}.st14{fill:#6dbd45}.st15{fill:#00adee}.st16{fill:#6dbd45}.st17,.st18{fill:#656666;stroke:#231f20}.st18{fill:none}.st19{fill:#96421e}</style><path d="M595.7,256.9" class="st0"/><g><path d="M890,388.4c-0.2,4-2,7-5.6,8.8c-0.5,0.2-0.7,0.5-0.5,1c1.4,4.9-0.7,8.6-4.5,11.2c-4.4,3.1-9.5,4.3-14.8,4.9 c-3,0.4-5.9,0.2-8.9-0.7c-3.1-0.9-5.8-2.7-7.8-5.1c-5.6-7-8.4-15.1-8.8-22.5c0.1-8.8,2.3-15.3,6.1-21.3c0.6-0.9,1.2-1.8,1.8-2.7 c0.2-0.2,0.6-0.4,0.9-0.4c0.8,0,1.5,0.1,2.3,0.1c7.7,0,15.5,0,23.2,0c0.3,0,0.6,0.1,0.8,0c1.2-0.5,1.8,0.1,2.6,1 c4.3,5.1,8.2,10.5,11,16.7C889.1,382.3,890.2,385.2,890,388.4z" class="st1"/><path d="M919.6,417.1c-0.1,0.5-0.2,1.1-0.3,1.6c-0.1,0.3-0.3,0.5-0.3,0.7c-0.2,3.7-2.1,6.3-5,8.3 c-3.6,2.6-7.8,3.7-12.1,4.3c-3.4,0.5-6.7,0.6-10.1-0.2c-2.1-0.5-4-1.6-5.7-2.9c-0.5-0.3-0.9-0.7-1.3-1.1l-0.1,0.1 c0.1,0.2,0.2,0.4,0.3,0.5c-2-1.5-3.7-3.4-4.8-5.6c-0.8-1.4-1.4-3-1.7-4.6c-0.6-2.8,0.5-5.3,2.3-7.5c2.7-3.3,6.3-5.1,10.3-6.4 c5.2-1.6,10.6-1.6,15.9-0.7c1.9,0.3,3.7,1,5.1,2.7c-0.2,0-0.3,0-0.3,0c0.1,0.8,0.2,1.5,0.3,2.3c0.1,1.4,0.2,2.9,0.5,4.3 c0.5,2.9,2.6,4.9,6.2,4C918.9,416.9,919.3,417,919.6,417.1z" class="st1"/><path d="M877.5,355.8c0,1.8-0.8,2.9-1.9,4c-0.8,0.7-1.6,1-2.7,1c-3.8-0.1-7.6,0-11.5,0c-3.8,0-7.5-0.1-11.3,0 c-2,0.1-3.2-1-4.2-2.4c-0.4-0.5-0.6-1.3-0.6-2c0-6.1,0-12.3,0-18.4c0-1.9,2.3-4.2,4.2-4.2c7.4,0,14.8,0,22.2,0 c1.2,0,2.5-0.2,3.6,0.7c1.4,1.1,2.3,2.3,2.3,4.3C877.4,344.4,877.4,350.1,877.5,355.8z" class="st1"/><path d="M922,414.1c-1,0.8-2.1,1.5-3.2,2c-1.4,0.6-4.2-0.1-4.8-2.2c-0.3-0.9-0.6-1.8-0.6-2.7c0.1-2.5,0.2-5.1,0.4-7.6 s-0.3-4.5-2.6-6c-1.9-1.3-3.7-2.9-5.4-4.5c-0.5-0.5-0.8-1.4-0.8-2.1c0.1-2.1,0.4-4.1,0.6-6.2c0-0.2,0-0.5,0.1-0.7 c-0.1,0-0.2,0-0.2,0c-0.3,1.7-0.6,3.4-1,5.1c-0.7,2.7,0.2,4.8,2.3,6.6c1.3,1,2.5,2.2,3.9,3.1c1.5,1,1.9,2.3,1.8,4 c-0.1,0.9-0.2,1.7-0.4,2.7c-3.8-3-8.3-2.8-12.7-2.9c-5.1,0-9.9,1.1-14.3,3.8c-0.8,0.5-1.5,1-2.4,1.6c0.6-0.9,1.1-1.6,1.5-2.4 c1.2-2.2,1.5-4.5,0.9-6.9c-0.1-0.5,0-0.8,0.5-1c4.1-2.4,5.8-6.1,5.4-10.7c-0.2-2.3-0.9-4.5-1.3-6.7h3.1c-0.4,1.9-0.3,3.7,0.4,5.5 c0.3,0.8,0.7,1.5,1.1,2.2c1.2,1.6,3.3,1.3,4.1-0.4c0.7-1.4,0.5-2.8,0.2-4.2c-0.2-1-0.6-2-0.9-3.1c0.3,0,0.6,0,0.9,0 c3.3,0,6.6,0,9.8,0c0.7,0,1.3-0.2,1.9-0.2c0.3,0,0.6,0.1,0.8,0.3c3.9,4.4,7.4,9.1,10.2,14.3c1.5,2.8,2.9,5.7,3.5,8.9 C925.7,407.6,925.2,411.3,922,414.1z" class="st1"/><path d="M912.7,374.4c0,2-0.9,3.2-2.3,4.3c-0.3,0.2-0.7,0.5-1.1,0.5c-4,0-8.1,0-12.2,0v-3.4c0.3,0.3,0.4,0.5,0.5,0.6 c0.4,0.1,0.8,0.4,1.1,0.3s0.6-0.6,0.5-0.9c0-0.3-0.4-0.7-0.7-0.8c-1-0.4-1.5-0.9-1.5-1.7c0-0.8,0.5-1.1,1.1-1.4 c0.4-0.2,0.8-0.5,1.1-0.8c0.1-0.2-0.2-0.7-0.5-0.9c-0.5-0.4-0.9,0-1.3,0.3c-0.1,0.1-0.2,0.1-0.4,0.2V367c0.3,0.3,0.4,0.6,0.7,0.7 s0.7,0.2,1,0.1s0.5-0.5,0.5-0.8s-0.3-0.6-0.5-0.8c-0.3-0.3-0.8-0.4-1.2-0.6c-0.7-0.4-0.7-1-0.5-1.6c0.1-0.4,0.6-0.8,1.1-1 c0.6-0.2,1.1-0.2,1.1-0.9c0-0.3-0.2-0.7-0.4-0.9c-0.6-0.4-1.1-0.1-1.5,0.4c0,0.1-0.1,0.1-0.4,0.2c0-1.1,0-2.1,0-3.1 s-0.4-1.3-1.4-1.4c-2.6-0.1-2.7,0-2.7,2.6c0,0.5,0,1,0,1.6c-0.3-0.2-0.4-0.3-0.6-0.4c-0.6-0.2-1.1-0.1-1.3,0.5s0,1.1,0.7,1.2 s1.3,0.3,1.2,1.2c0,1.3-0.2,1.6-1.2,2c-0.3,0.1-0.7,0.6-0.8,0.9c-0.1,0.2,0.3,0.7,0.5,0.8c0.3,0.1,0.7-0.1,1.1-0.2 c0.1,0,0.1-0.1,0.3-0.3v3.1c-0.2-0.2-0.3-0.3-0.5-0.3c-0.4,0-0.8-0.1-1.1,0.1c-0.2,0.1-0.4,0.6-0.3,0.9c0.1,0.3,0.4,0.7,0.7,0.7 c1.1,0.1,1.3,0.7,1.3,1.6s-0.5,1.3-1.3,1.6c-0.3,0.1-0.7,0.5-0.7,0.8s0.2,0.8,0.5,0.9s0.7,0,1.1-0.1c0.1,0,0.2-0.2,0.4-0.4v3.1 c-1.3,0-2.5,0-3.7,0c-0.2,0-0.4-0.3-0.5-0.5c-2.1-4.6-4.9-8.7-7.9-12.7c-0.2-0.3-0.3-0.7-0.3-1c0-2.9-0.1-5.9,0-8.8 c0-1.6,1.2-2.5,2.4-3.3c0.5-0.4,1.3-0.5,1.9-0.6c7.9,0,15.7,0,23.5,0c2.2,0,4.3,2.1,4.3,4.3C912.6,362.6,912.6,368.5,912.7,374.4z" class="st1"/><path d="M897.1,266.4c3-1.8,4.4-5.2,3.4-8.4c-0.6-1.9-1.9-2.9-3.9-2.8c-1.1,0.1-2.1,0.3-3.1,0.6c-4.7,1.4-9.2,3.3-13.5,5.8 c-0.6,0.3-1,0.3-1.5,0c-4.6-2.6-9.4-4.5-14.4-5.9c-3.4-1-5.9,0.9-5.9,4.4c-0.1,3.6,2.7,6.9,6.4,7.6c2.8,0.6,5.6,0.2,8.3-0.8 c1.6-0.6,3.2-1.3,4.7-2c-0.9,0.7-1.8,1.3-2.8,1.9c-3,1.9-5.1,4.6-5.6,8.2c-0.3,2.1,0.2,4,1.2,5.7c0.3,0.5,0.8,0.7,1.3,0.4 c0.2-0.2,0.4-0.9,0.3-1.1c-2.1-3.6-1-6.7,1.3-9.6c1.4-1.8,3.4-2.6,5.4-3.9c-5.6,22.1-11.2,44-16.8,66h1.4 c4.3-16.8,8.5-33.5,12.8-50.3c0.1,0,0.1,0,0.2,0c-2.7,16.7-5.5,33.4-8.2,50.3c0.6-0.1,1.3,0.5,1.5-0.5c0.6-3.6,1.2-7.2,1.8-10.9 c1.6-10.1,3.3-20.2,4.9-30.4c0.6-4,1.3-8,1.9-12c0.3-1.7,0.6-3.4,0.9-5.2h0.1c3.4,25.8,6.9,51.6,10.3,77.4h1.4 c-3.3-25-6.6-49.8-9.9-74.7c0.2,0.3,0.3,0.6,0.4,0.9c1,5,2.1,10,3.2,14.9c2,9.2,3.9,18.5,5.9,27.7c2.1,10.1,4.3,20.1,6.4,30.2 c0.2,1.1,0.3,1.1,1.6,0.9c-6-28.2-12-56.3-18-84.5c0.1-0.1,0.1-0.1,0.2-0.2c1.5,1.1,3.2,2,4.5,3.3c2.4,2.3,4.3,6.4,1.8,10.1 c-0.2,0.2,0,1,0.3,1.1c0.3,0.2,0.8-0.1,1.2-0.2c0.1,0,0.2-0.3,0.3-0.4c1.2-2.1,1.4-4.4,0.8-6.7c-0.9-3.2-3-5.5-5.8-7.2 c-0.7-0.4-1.3-0.9-2-1.3c1.9,0.6,3.7,1.5,5.6,2.1C890.6,268.2,893.9,268.3,897.1,266.4z M865.5,266.2c-1.6-0.3-3-0.8-4.2-2 c-1.3-1.3-1.7-2.9-1.5-4.7c0.2-1.6,1.5-2.5,3.1-2.1c3.8,0.8,7.4,2.3,10.9,4c1.1,0.5,2.2,1.1,3.5,1.7 C873.4,264.9,869.8,266.9,865.5,266.2z M881.6,262.7c4.5-2.4,9.1-4.4,14-5.6c1.9-0.5,3.3,0.7,3.4,2.7c0.1,2.6-1.7,5-4.5,5.8 c-1.8,0.5-3.6,0.5-5.4,0.2C887.3,265.5,883.2,263.8,881.6,262.7z"/><path d="M877.9,417.8c-0.1,0-0.1,0-0.2,0c-0.6-1.7-1.2-3.4-1.8-5.1c1.7-1,3.3-1.9,5-2.9 C878.9,412.2,877.6,414.7,877.9,417.8z" class="st1"/><path d="M897.6,362.4c-0.1,0.2-0.1,0.5-0.2,0.7c-1.5,1.2-2.9,2.4-4.7,3.8c0-0.5,0-0.8,0.1-0.9c1.5-1.3,3-2.5,4.5-3.7 C897.4,362.3,897.5,362.3,897.6,362.4z"/><path d="M897.6,371.2c-0.1,0.2-0.1,0.6-0.2,0.7c-1.5,1.2-2.9,2.4-4.4,3.6c-0.1,0-0.2-0.1-0.3-0.1c0.1-0.2,0-0.5,0.2-0.7 c1.5-1.2,2.9-2.4,4.4-3.6C897.4,371.1,897.5,371.2,897.6,371.2z"/><path d="M897.6,375.3c-0.1,0.1-0.2,0.1-0.3,0.1c-0.6-0.5-1.2-1-1.8-1.4c0-0.1,0-0.2,0-0.2c0.2,0,0.6-0.1,0.7,0 C896.7,374.3,897.8,374.4,897.6,375.3z"/><path d="M894.8,363.7c0,0.1,0,0.2-0.1,0.3c-0.2,0-0.5,0-0.7-0.1c-1.2-0.8-1.4-1-1.1-1.7C893.6,362.7,894.2,363.2,894.8,363.7z"/><path d="M897.4,366.7c-0.6-0.6-1.2-1-1.8-1.5c0-0.1,0-0.2,0-0.3c0.3,0,0.6,0,0.8,0.1C897.8,366.1,897.8,366.1,897.4,366.7z"/><path d="M895,372.7c-1.2,0.4-1.5-0.5-2.1-0.9c-0.1-0.1-0.1-0.5-0.2-0.7c0.1,0,0.2-0.1,0.3-0.1C893.6,371.6,894.2,372.1,895,372.7z"/></g><g><path d="M363.3,293.1c-1.3-2.4-3.2-4-5.9-4.6c-0.7-0.2-1.5-0.2-2.2-0.3c0-0.1,0-0.3,0.1-0.4c0.5-2.5,0.8-5,0.8-7.5 c0-2.8-0.3-5.6-0.8-8.4c0-0.2-0.1-0.4-0.3-0.5c-1.8-1.5-3.5-3.1-5.3-4.6c-4-3.2-8.6-5.3-13.6-6.3c-3-0.6-6.1-0.9-9.2-1 c-3.2-0.1-6.4-0.1-9.6,0.6c-6.7,1.3-12.3,4.4-16.9,9.5c-4.8,5.3-7.7,11.5-8.7,18.6c-0.1,1-0.2,2-0.2,3c2.5,0.8,4.8,1.8,7.1,3.2 c-1.8,0.8-2.7,2.2-3.2,4c-0.5,2.1-0.4,4.2,0,6.3c0.7,4.1,2.2,8,4.2,11.6c0.1,0.2,0.1,0.4,0.1,0.5c-0.8,4.5-0.5,8.9,1,13.2 c1.3,3.6,3.2,6.8,6.4,9.1c4.1,2.9,8.4,3.4,13,1.1c0.2-0.1,0.3-0.2,0.4-0.4c1.2-2,2.1-4.2,2.8-6.4c1.1-4,1.3-8,0.8-12.1 c-0.5-3.8-1.5-7.3-3.5-10.5c-1.7-2.9-4-5.2-7.1-6.5c-0.1-0.1-0.3-0.2-0.3-0.3c-1.2-1.7-2.4-3.4-3.6-5.1c-1.9-2.9-3.6-5.9-4.8-9.2 c-0.1-0.2-0.1-0.5-0.1-0.8c0.2-1.5,0.6-2.9,1.2-4.3c2.4-5.5,6-10,10.5-13.8c2.6-2.2,5.4-3.9,8.6-5c2.3-0.8,4.7-1,7.1-0.6 c3,0.5,5.5,2.1,7.6,4.2c2.4,2.4,4.2,5.2,5.7,8.2c1.9,3.9,3.6,7.9,5.4,11.9c0,0,0,0.1,0,0.2c-1.1,0.8-2.1,1.7-2.8,2.8 c-0.1,0.1-0.3,0.1-0.4,0.1c-0.6-0.1-1.2-0.3-1.8-0.3c-2.2-0.1-4,0.8-5.7,2.1c-2.2,1.8-3.6,4.2-4.7,6.8c-1.3,3-1.9,6.2-2,9.5 c-0.2,4.6,0.4,9.2,2.3,13.4c1.2,2.6,2.7,5,5.1,6.6c2.4,1.7,5,2.1,7.8,1.1c2.1-0.8,3.7-2.4,5-4.2c1.8-2.4,2.8-5.2,3.6-8.1 c0-0.2,0.1-0.3,0.2-0.4c1-0.9,1.6-2,2-3.3c0.7-2,0.8-4,0.7-6.1c0-0.4,0.1-0.6,0.4-0.9c0.6-0.5,1.2-1,1.7-1.6 C365.3,303.6,365.7,297.5,363.3,293.1z M306.7,304.3c-2.9,2.2-4.4,5.2-5.5,8.6c-0.3-0.3-0.5-0.5-0.7-0.8c-0.8-1.2-1.3-2.5-1.7-3.8 c-0.7-2.5-1.1-5.1-1-7.8c0-0.9,0.2-1.9,0.5-2.8c0.4-1.2,1.3-1.6,2.5-1.1c0.5,0.2,1,0.5,1.3,0.9 C303.9,299.1,305.6,301.6,306.7,304.3z M348.6,320.1c-0.3,1.3-0.7,2.7-1.2,3.9c-0.3,0.7-0.7,1.3-1.3,1.8c-1,1.1-2.4,1.1-3.5,0.2 c-0.9-0.7-1.4-1.6-1.9-2.5c-1.1-2.3-1.7-4.7-2-7.2c-0.2-1.3-0.2-2.6-0.3-3.3c0-3.5,0.3-6.3,1.4-9c0.4-1,0.8-1.9,1.6-2.6 c1.2-1.1,2.5-1.2,3.8-0.1c1,0.9,1.6,2,2.1,3.2c1,2.3,1.4,4.7,1.7,7.1C349.2,314.5,349.2,317.3,348.6,320.1z M361.7,304.4 c-0.4,0.9-1,1.7-1.8,2.3c-0.4-1.4-0.7-2.7-1.1-4c-0.5-1.6-1.3-3.1-2.4-4.5c-0.5-0.6-1.1-1.2-1.9-1.6c-0.3-0.1-0.6-0.3-0.9-0.3 c-0.6,0-0.9-0.3-1.3-0.7c-0.7-0.7-1.6-1.4-2.4-2.2c2.1-1.5,4.3-2.7,7-2c1.2,0.3,2.3,1,3,2C362.6,296.8,363.2,300.4,361.7,304.4z"/><path d="M328.1,329.9c-0.8,2.3-2,4.5-3.6,6.4c-0.1,0.1-0.1,0.1-0.2,0.2c0.3-1,0.6-1.9,0.9-2.9c1-3.7,1.3-7.5,0.9-11.3 c-0.3-3.9-1.3-7.5-3-11c-1.7-3.3-3.9-6-7.2-7.9c-1.2-0.7-2.5-1.2-3.8-1.5c-0.1,0-0.1,0-0.2-0.1c0,0,0,0,0-0.1 c1.3-0.3,2.6-0.4,3.9-0.2c3.6,0.5,6.5,2.5,8.7,5.3c2.4,3,3.8,6.4,4.5,10.2C329.8,321.4,329.6,325.7,328.1,329.9z"/><path d="M306.7,304.3c-2.9,2.2-4.4,5.2-5.5,8.6c-0.3-0.3-0.5-0.5-0.7-0.8c-0.8-1.2-1.3-2.5-1.7-3.8 c-0.7-2.5-1.1-5.1-1-7.8c0-0.9,0.2-1.9,0.5-2.8c0.4-1.2,1.3-1.6,2.5-1.1c0.5,0.2,1,0.5,1.3,0.9 C303.9,299.1,305.6,301.6,306.7,304.3z" class="st2"/><path d="M359.9,306.7c-0.4-1.4-0.7-2.7-1.1-4c-0.5-1.6-1.3-3.2-2.4-4.5c-0.5-0.6-1.1-1.2-1.9-1.6 c-0.3-0.1-0.6-0.3-0.9-0.3c-0.6,0-0.9-0.3-1.3-0.7c-0.7-0.7-1.6-1.4-2.4-2.2c2.1-1.5,4.3-2.7,7-2c1.2,0.3,2.3,1,3,2 c2.5,3.3,3.1,7,1.6,10.9C361.3,305.3,360.6,306.1,359.9,306.7z" class="st2"/><path d="M347.3,315c0,2.2-0.2,4.3-0.8,6.4c-0.2,0.8-0.6,1.6-1.1,2.3c-0.7,1.1-1.4,1.1-2.3,0.1c-0.8-0.9-1.2-1.9-1.6-3 c-1-3.1-1.3-6.2-1.3-9.4c0.1-2.1,0.3-4.2,1-6.2c0.3-0.7,0.6-1.3,1-1.9c0.5-0.7,1.3-0.8,1.9-0.1c0.4,0.5,0.8,1.1,1.1,1.7 c1,2.1,1.5,4.4,1.7,6.7C347.2,312.7,347.2,313.9,347.3,315z"/></g><path d="M540.7,338c-1.9-5.6-1.8-5.2-2.8-8.3c-1.8-5.7-1.8-6.5-3.5-12.1c-1.4-4.5-2.7-8-3.4-9.8	c-1.3-3.5-2.3-5.8-2.6-6.6c-0.7-1.6-1.2-2.9-1.9-4.4c-3.1-7-4.7-10.5-5.2-10.8c-3.1-1.4-5.7,2.6-15.7,3.7c-0.5,0.1-0.9,0.1-1.4,0.2	c-3.3,0.3-6.2,0.4-12.8,0.2c-2.4-0.1-3.6-0.1-5.7-0.2c-5.5-0.2-8.1-0.4-14.4-0.8c0,0-13.9-0.8-24.2-1c-0.1,0-0.3,0-0.3,0	c-2.7,0-4.7,0-5.1,0c-3,0-6.5,0-14.8,0c-0.9,0-10.6,0.1-15-0.2c-0.9-0.1-1.7-0.1-1.7-0.1c-2.5-0.2-4.3-0.4-5-0.4	c-2.8-0.3-5.2-0.5-8.5-0.7c-1.2-0.1-4.6-0.3-7.1-0.5c-0.7-0.1-1.3-0.1-1.9-0.2c-0.3,0-1.4-0.1-2.7-0.3c-2.8-0.3-5.1-0.7-8.9-1.1	c-2.4-0.3-4.5-0.5-4.8-0.6c-2.3-0.3-3.3-0.3-5.5-0.6c-0.8-0.1-1.8-0.2-3.3-0.4c-1.6-0.2-2.3-0.3-4.6-0.7c0,0-1.4-0.2-3.5-0.5	c-4.6-0.6-6.9-1-9.4-1.2c0,0-5.9-0.4-10.2,0.1c-0.7,0.1-1.6,0.2-2.9,0.5s-1.8,0.6-3.1,0.9c-1.1,0.3-1.6,0.7-2.4,0.9	c-0.1,0-0.3,0.1-0.4,0.1c-0.2,0-0.4,0.1-0.5,0.1c-0.2,0-0.4,0-0.6,0.1c-0.5,0.1-2.1,0.2-2.7,0.2c-1.1,0.1-4.8,0.1-9.9-0.1	c-2.3-0.9-2.6-1.3-4.9-2.2c0.8-1.1,1.6-2.2,2.3-3.4c0.7-0.1,1.5-0.3,1.9-0.9c1.2-1.6-1-4.9-1.5-5.6c-0.7-1-2.3-3.3-5.5-4.2	c-1.8-0.5-2.4,1-3.3,1.2c-0.7,0.6-1.2,1.2-1.9,1.9c-0.6,0.6-1.1,1.5-1.7,2.2c-0.4-0.8-0.6-1.4-0.9-2.2c-0.2-0.6-0.5-1.6-0.5-2.5	c0-0.6,0-2.3,1.5-4.4c1-1,2.2-2.2,3.7-3.5c1.7-1.5,3.2-2.4,4.6-3.4c1.2-0.8,2.7-1.7,4.4-2.7c1-0.6,2.6-1.4,4.7-1.9	c1.6-0.4,4-0.6,5.1-0.2c0,0,1.1,0.4,2,0.4h0.1h0.1c2.1,0.3,5.3,1.9,5.3,1.9c3.5,1.8,3.1,1.1,5,2.3c0.6,0.4,2.4,1.6,4.5,2.4	c0.2,0.1,0.3,0.1,0.4,0.1c0,0,1.7,0.6,3.7,0.9c6.6,0.9,26.5-1.1,26.5-1.1c1.9-0.2,3-0.3,4.6-0.4c2-0.2,3.1-0.2,5.8-0.5	c0.9-0.1,1.7-0.2,2.5-0.2c1.4-0.1,2.4-0.3,3-0.3c4.1-0.5,5.4-0.7,8-0.9c1.5-0.2,2.6-0.3,3.9-0.4c4.5-0.4,7.6-0.8,11.2-1	c0,0,10.9-0.7,17.6,0.1c0.1,0,0.8,0.1,1.1,0.1c3.6,0.4,5.4,0.7,6.3,0.8c4.4,0.6,6.1,1,8.6,1c1,0,1.9-0.1,1.9-0.1	c1.7-0.1,3-0.3,3.7-0.4c1.7-0.3,3.5-0.4,5.2-0.7c4.4-0.6,8-0.8,9.6-1c4.3-0.4,8.9-1.6,18.1-4c12.1-3.2,15.5-4.8,19.4-4.2	c0.6,0.1,2.5,0.4,4.9-0.1c2.7-0.6,4.4-2,5.1-2.6c5.2-3.9,12.3-5.7,21-7.8c1.9-0.5,3.7-0.9,6.1-1.2c2.3-0.3,3.2-0.2,5.4-0.5	c1.9-0.3,3.1-0.6,5.5-1.3c10-2.7,11.3-3,13.2-3.4c1.5-0.3,3.9-0.6,5.8-0.9c1.1-0.1,2.2-0.2,2.2-0.2s0.9-0.1,1.9-0.2	c2.3-0.2,35.8-2.2,57.4,0.4c2.6,0.3,4.4,0.6,5.8,0.9c6.2,1.1,10.2,2.5,13.2,3.4c8.3,2.4,7.8,0.6,17,2.9c6.9,1.7,16.2,4,21,7.8	c0.6,0.5,2.4,1.9,5.1,2.6c2.4,0.5,4.3,0.2,4.9,0.1c4.6-0.7,9.1,1.4,19.4,4.2c6.7,1.8,11.5,3.1,18.1,4c5.8,0.8,7.2,0.5,14.8,1.6	c1.5,0.2,3.2,0.5,5.6,0.5c2.9,0,4.6-0.4,8.6-1c0,0,3.2-0.5,7.4-0.9c7.2-0.8,13.1-0.4,17.6-0.1c3.6,0.2,7.8,0.6,11.2,1	c0.9,0.1,2.1,0.2,3.7,0.4c3.7,0.4,4.6,0.6,8.2,1c1.9,0.2,3.4,0.4,5.5,0.6c2.2,0.2,3.1,0.2,5.8,0.5c2,0.2,3.4,0.3,4.5,0.4	c6.7,0.7,19.4,2.2,26.5,1.1c2.2-0.3,3.6-0.9,4-1c1.7-0.7,1.3-0.8,4.5-2.4c2.2-1.1,4.2-2,5-2.3c0,0,0.1,0,0.2-0.1	c0,0,2.7-1.1,5.2-1.8c3.6-1.1,7.4-2.2,11.3-0.9c2.1,0.7,1.5,1.3,5.1,3c3,1.4,4.6,1.5,5.1,3c0.3,0.8,0.5,2.7-0.3,3.8	c-0.2,0.2-0.5,0.6-0.5,1.1s0.3,0.8,0.6,1.3c0.9,1.5,0.6,3.9,0,4.6c-0.1,0.1-0.3,0.3-0.3,0.6c0,0.3,0.2,0.5,0.3,0.6	c0.8,1,0.6,4.7-0.1,5.5c0,0-0.2,0.2-0.2,0.4c-0.1,0.3,0,0.6,0.1,0.7c0.4,0.8,0,2.1-0.1,2.5c0,0.1-0.2,0.9-0.8,1.6	c-1,1.3-2.6,1.4-4.5,2c-2.5,0.7-2.5,1.3-4.5,2c-3.8,1.3-7.6,0.5-14-0.8c-0.3-0.1-3.2-0.7-3.2-0.7l0,0c-0.8-0.3-1.8-0.6-3.1-0.9	c-0.6-0.1-1.6-0.3-2.9-0.5c0,0-2.9-0.4-10.2-0.1l0,0c-4.9,0.5-7.7,0.9-9.4,1.2c-0.3,0-3.5,0.5-3.5,0.5l0,0c-1.8,0.3-3.3,0.5-4.6,0.7	c-0.7,0.1-1.8,0.2-3.3,0.4c-0.1,0-0.7,0.1-1.6,0.2c-1.8,0.2-3.1,0.3-3.8,0.4c-1.5,0.2-2.6,0.3-4.8,0.6c-3.6,0.4-6.1,0.8-8.9,1.1	c-0.5,0.1-1.5,0.2-2.7,0.3c-0.9,0.1-1.6,0.1-1.9,0.2c-2.6,0.2-6.4,0.5-7.1,0.5c-3.7,0.3-5.9,0.4-8.5,0.7c-0.7,0.1-2.5,0.3-5,0.4	c0,0-0.9,0.1-1.7,0.1c-4.3,0.2-13.9,0.2-15,0.2c-4.9,0-9.8,0-14.8,0c-1.7,0-3.4,0-5.2,0h-0.3c-4.6,0-24.2,1-24.2,1l0,0	c-4.9,0.3-8.6,0.5-10.6,0.6c-2.1,0.1-3.8,0.2-3.8,0.2c-0.2,0-0.9,0-1.8,0.1c-0.5,0-2.1,0.1-4,0.1c-5.9,0.1-8.9,0.2-12.8-0.2	c-0.4,0-0.8-0.1-1.4-0.2c-10-1.2-12.7-5.2-15.6-3.7c-2,1-2,3.5-5.3,10.8c-0.1,0.1-0.4,0.8-0.8,1.8c-0.4,0.8-0.7,1.6-1.1,2.5	c-0.2,0.4-0.4,1-0.7,1.8c-1,2.5-1.9,4.8-1.9,4.8c-0.9,2.3-2.1,5.6-3.4,9.8c-0.3,0.9-0.6,2-1,3.4c-0.7,2.3-0.7,2.7-1.5,5.3	c-0.3,0.9-0.6,2-1,3.4c-0.2,0.5-0.4,1.1-0.6,1.9c-0.4,1.2-0.6,1.9-1,2.8c-0.3,0.9-0.6,1.8-1.2,3.6" class="st3"/><path d="M325,283.3c-0.9,0.1-1.8,0.2-2.7,0.2C323.3,283.5,324.2,283.4,325,283.3z" class="st3"/><path d="M326.6,283L326.6,283c-0.1,0.1-0.3,0.1-0.4,0.1C326.3,283.1,326.4,283.1,326.6,283z" class="st3"/><path d="M323,189.1c3.3,1.5,4.2,2,6.7,3.1c3.1,1.3,6.5,2.7,10.9,3.7c3.5,0.8,4.5,0.6,6.4,0.9c0,0,1.3,0.2,2.9,0.6	c3.6,1,8,3.2,8.9,3.6c2.8,1.4,5.2,2.7,8.7,4.7c2.7,1.5,5.3,3,7.8,4.5c6.7,3.9,10.3,6.6,15.3,9.9c4.4,2.9,10.3,6.7,17.4,10.5	c8.4,4.4,8.7,3.5,24.6,10.9c5.5,2.6,6.5,3.2,13.9,6.5c8.4,3.9,12.6,5.8,15.8,6.9c4.7,1.7,9.6,2.8,19.6,5c9.3,2.1,10.6,2.1,16.1,3.5	c7.3,1.8,13,3.8,16.7,5.1c1.6,2.7,3.2,5.7,4.7,9.1c1.5,3.2,2.6,6.3,3.6,9.1c28.4-15,46.1-34.5,42.8-49.7c-0.5-2.3-1.5-4.8-3.4-7.3	c-2.1,0.4-4.2,0.7-6.4,1.1c-3,0.7-6,1.4-9,2.1c-2.3-1.2-5.4-2.6-9.3-3.9c-5.8-1.9-10.5-2.4-13.1-2.8c-2.4-0.3-6.1-0.7-10.8-0.5	c-5.7,0.2-7.5,1.1-12.4,0.7c-2.2-0.2-3.9-0.5-7.2-1.3c-9.8-2.2-10.7-3.4-17.8-4.8c-4.6-0.9-5.4-0.7-12.7-2.1	c-3.5-0.7-5.8-1.3-8.6-2.5c-1.9-0.9-3.2-1.7-6.5-3.9c-6.9-4.7-7.3-5.1-9.4-6.5c-5.3-3.4-9.9-5.1-15.4-7c-3.1-1.1-6-1.9-11.7-3.5	c-7-1.9-13.4-3.4-18.2-4.5c-3.8-0.9-3-0.7-5.2-1.2c-16.6-4-21.8-6.8-24.9-8.9c-1.5-1-2.6-1.9-3.3-2.5c-0.8-1.1-1.9-2.5-3.3-4	c-0.7-0.8-2-2.3-3.8-4c-0.3-0.3-2.4-2.4-4.2-3.8c-3.2-2.5-6.3-3.6-10.1-4.9" class="st4"/><path d="M605.3,432.7c1.1-3.7,3.3-8.2,7.3-12c8.8-8.1,23.3-9.3,37-3.4c2.8,17.5,8.7,30.2,14.7,39.4	c1.7,2.7,1,1.3,8.6,11.8c17.6,24.3,20.9,31.1,22.2,33.9c0.7,1.6,4.2,9,7.1,19.4c2.2,7.9,3.5,15,4.2,21c1.4,10.9,3.4,19.4,5,25.3	c0.7,2.5,1.1,3.9,1.8,6c2,5.6,3.6,8,9,19.4c0.8,1.7,0.7,1.5,1.3,2.8c1.7,3.5,3.7,7.2,16.1,31.5c5,9.8,7.6,14.9,10,19.8	c7.6,15.3,6.9,14.5,12.7,26c6.1,12,8.4,16,10,20.2c1,2.6,2.5,4.9,3.5,7.5c0.2,0.7,0.7,2.1,2,3.3c0.2,0.2,1.1,1.1,2.7,1.6	c5,2,20.2,2.6,24.2,2.8c8.4,0.4,9.8,1.1,13-0.1c1.5-0.6,3.7-1.6,7.1-2c2.2-0.3,4.1-0.1,5.4,0.1c0.8,0.4,2.4,1.4,2.5,2.8	c0.1,1.5-1.8,2.6-3.3,3.6c-8.6,5.3-12.8,7.9-14.4,8.7c-6.4,3.2-4.7,2.5-8.1,4.1c-13.2,6.4-13.9,5.7-18.3,8.9	c-7.6,5.5-8.9,6.7-8.9,6.7c-1.1,1-2.5,2.5-5,3.4c-0.8,0.3-2.9,1-5.1,0.6c-3.8-0.7-5.9-4.2-7-5.9c-3.5-5.8-3.2-11.5-3.5-15.6	c-0.5-6.1-4.7-12.8-13-26.3c-7.8-12.6-15.2-21.1-17.2-23.3c-7.1-7.9-12.7-13.3-12.7-13.3c-6.1-5.9-8.3-7.2-11.6-11.9	c-2.9-4.2-4.7-8.1-6.6-12.3c-1.9-4.1-3-7.5-4.6-12.1c-1.7-4.9-2.1-6.5-3.4-10.4c-0.3-1-3.3-9.7-6.8-17.8c-2.8-6.3-5.4-10.9-9.5-18	c-11.8-20-17.6-30.1-22.5-36.5c-2.6-3.5-8.5-10.1-20.3-23.2c-11.2-12.5-17.9-19.5-24.3-31.4c-2.7-5-4.5-9.4-5.6-12.2" class="st3"/><path d="M588.5,432.7c-1.1-3.7-3.3-8.2-7.3-12c-8.8-8.1-23.3-9.3-37-3.4c-2.8,17.5-8.7,30.2-14.7,39.4	c-1.7,2.7-1,1.3-8.6,11.8c-17.6,24.3-20.9,31.1-22.2,33.9c-0.7,1.6-4.2,9-7.1,19.4c-2.2,7.9-3.5,15-4.2,21	c-1.4,10.9-3.4,19.4-5,25.3c-0.7,2.5-1.1,3.9-1.8,6c-2,5.6-3.6,8-9,19.4c-0.8,1.7-0.7,1.5-1.3,2.8c-1.7,3.5-3.7,7.2-16.1,31.5	c-5,9.8-7.6,14.9-10,19.8c-7.6,15.3-6.9,14.5-12.7,26c-6.1,12-8.4,16-10,20.2c-1,2.6-2.5,4.9-3.5,7.5c-0.2,0.7-0.7,2.1-2,3.3	c-0.2,0.2-1.1,1.1-2.7,1.6c-5,2-20.2,2.6-24.2,2.8c-8.4,0.4-9.8,1.1-13-0.1c-1.5-0.6-3.7-1.6-7.1-2c-2.2-0.3-4.1-0.1-5.4,0.1	c-0.8,0.4-2.4,1.4-2.5,2.8c-0.1,1.5,1.8,2.6,3.3,3.6c8.6,5.3,12.8,7.9,14.4,8.7c6.4,3.2,4.7,2.5,8.1,4.1c13.2,6.4,13.9,5.7,18.3,8.9	c7.6,5.5,8.9,6.7,8.9,6.7c1.1,1,2.5,2.5,5,3.4c0.8,0.3,2.9,1,5.1,0.6c3.8-0.7,5.9-4.2,7-5.9c3.5-5.8,3.2-11.5,3.5-15.6	c0.5-6.1,4.7-12.8,13-26.3c7.8-12.6,15.2-21.1,17.2-23.3c7.1-7.9,12.7-13.3,12.7-13.3c6.1-5.9,8.3-7.2,11.6-11.9	c2.9-4.2,4.7-8.1,6.6-12.3c1.9-4.1,3-7.5,4.6-12.1c1.7-4.9,2.1-6.5,3.4-10.4c0.3-1,3.3-9.7,6.8-17.8c2.8-6.3,5.4-10.9,9.5-18	c11.8-20,17.6-30.1,22.5-36.5c2.6-3.5,8.5-10.1,20.3-23.2c11.2-12.5,17.9-19.5,24.3-31.4c2.7-5,4.5-9.4,5.6-12.2" class="st3"/><path d="M863.7,192.2c-3.1,1.3-6.5,2.7-10.9,3.7c-3.5,0.8-4.5,0.6-6.4,0.9c0,0-1.3,0.2-2.9,0.6c-3.6,1-8,3.2-8.9,3.6	c-2.8,1.4-5.2,2.7-8.7,4.7c-2.7,1.5-5.3,3-7.8,4.5c-6.7,3.9-10.3,6.6-15.3,9.9c-4.4,2.9-10.3,6.7-17.4,10.5	c-8.4,4.4-8.7,3.5-24.6,10.9c-5.5,2.6-6.5,3.2-13.9,6.5c-8.4,3.9-12.6,5.8-15.8,6.9c-4.7,1.7-9.6,2.8-19.6,5	c-9.3,2.1-10.6,2.1-16.1,3.5c-7.3,1.8-13,3.8-16.7,5.1c-1.6,2.7-3.2,5.7-4.7,9.1c-1.5,3.2-2.6,6.3-3.6,9.1	c-28.4-15-46.1-34.5-42.8-49.7c0.5-2.3,1.5-4.8,3.4-7.3c2.1,0.4,4.2,0.7,6.4,1.1c3,0.7,6,1.4,9,2.1c2.3-1.2,5.4-2.6,9.3-3.9	c5.8-1.9,10.5-2.4,13.1-2.8c2.4-0.3,6.1-0.7,10.8-0.5c5.7,0.2,7.5,1.1,12.4,0.7c2.2-0.2,3.9-0.5,7.2-1.3c9.8-2.2,10.7-3.4,17.8-4.8	c4.6-0.9,5.4-0.7,12.7-2.1c3.5-0.7,5.8-1.3,8.6-2.5c1.9-0.9,3.2-1.7,6.5-3.9c6.9-4.7,7.3-5.1,9.4-6.5c5.3-3.4,9.9-5.1,15.4-7	c3.1-1.1,6-1.9,11.7-3.5c7-1.9,13.4-3.4,18.2-4.5c3.8-0.9,3-0.7,5.2-1.2c16.6-4,21.8-6.8,24.9-8.9c1.5-1,2.6-1.9,3.3-2.5	c0.8-1.1,1.9-2.5,3.3-4c0.7-0.8,2-2.3,3.8-4c0.3-0.3,2.4-2.4,4.2-3.8c3.2-2.5,6.3-3.6,10.1-4.9" class="st4"/><path d="M664.9,275.7c1-0.7,3.2-2.4,6.5-4.2c2.6-1.4,4.9-2.3,6.7-2.9c-7.6,18.1-10.8,25.3-12,28.1	c-0.2,0.5-0.9,2.1-1.9,4.4s-1.8,4.5-2.6,6.6c-5.5,14.7-4.6,16.1-9.8,30.3c-1.1,2.9-3.5,9.6-5,17.5c-0.4,1.7-0.8,4.3-0.8,7.5	c0,1.5,0,3.4,1,9.6c1.3,8.6,2.1,11.2,2.6,17c0.1,0.9,0.3,3.4,0.3,4.1c0.2,2.1,0.5,6.5,0.6,7.7c0.3,5.3-0.6,8.5-0.9,13.4	c-0.3,4.7,0.2,8.4,1.1,15.9c0.8,5.9,1.9,11,4.1,21.1c1.9,9,2,8.4,2.8,12.8c0.3,1.7,1.2,6.7,2.7,19.1c0.9,7.3,1.3,11,1.6,14.5	c0.4,4.7,1.4,20.3-1.8,40.1c-0.4,2.8-1.9,11.2-4.9,21.5c-3.2,11.2-6.1,19.2-6.1,19.2c-1.1,3-1.8,4.7-2.6,7.7	c-0.5,1.9-1.8,6.9-2.4,14.1c-0.4,3.8-0.4,6.4-0.4,8.5c-0.1,8.2-0.8,12.5-1.6,21.9c-0.6,6.2-0.3,4.6-2.1,38.4	c-0.6,11-0.9,16.6-1.2,22.1c-1,17-1.3,16-2,28.8c-0.7,13.4-0.7,18.1-1.4,22.5c-0.5,2.7-0.3,5.5-0.7,8.2c-0.1,0.7-0.4,2.2,0.1,3.9	c0.1,0.3,0.4,1.5,1.5,2.8c3.3,4.2,16.2,12.3,19.6,14.5c7,4.6,8,5.9,11.3,6.4c1.6,0.3,4,0.4,7.2,1.8c2.1,0.9,3.6,2,4.7,2.8	c0.5,0.8,1.3,2.4,0.7,3.7c-0.7,1.3-2.9,1.4-4.6,1.5c-10.1,0.3-15.1,0.4-16.8,0.3c-7.1-0.4-5.3-0.2-9-0.5c-14.7-1-14.8-2-20.3-1.5	c-9.3,1-11,1.4-11,1.4c-1.4,0.3-3.4,0.9-6,0.4c-0.8-0.1-2.9-0.5-4.7-2c-3-2.4-3.5-6.2-3.7-8c-0.7-6.4,2-11.6,3.2-14	c4.8-10.1,4-20.3,3.2-31.7c-0.7-10-3.7-23.4-4.5-28.9c0-0.4-0.2-1.6-0.5-3.3c-0.2-1.2-0.5-2.1-0.7-3.5c-0.4-1.8-0.6-3.1-1-5.7	c-1.5-10.2-2.3-15.4-2.4-16.9c-0.9-8.5-1.4-12.7-1-18.2c0.1-1.4,0.6-5.2,1.7-12.6c0.9-6,1.4-9.6,1.6-10.7c2.3-16.1,1.5-33,1.2-39.9	c-0.2-3.1-0.1-1.5-0.9-14.2c-0.3-5.8-0.6-10.7-1.1-19.7c-1.3-23.8-1.2-22.2-1.5-26.3c-0.9-13.6-1.5-16.4-1.9-21.1l0,0	c0,0-0.2-2-0.2-4.1c-0.1-1.5,0.6-14.7,2-32.8c-1.2,0.2-2.6,0.3-4.2-0.1c-1.6,0.3-3,0.2-4.2,0.1c1.4,18.1,2,31.3,2,32.8	c-0.1,2.1-0.2,4.1-0.2,4.1l0,0c-0.4,4.8-1,7.6-1.9,21.1c-0.3,4.2-0.1,2.5-1.5,26.3c-0.5,9-0.8,13.9-1.1,19.7	c-0.8,12.7-0.7,11-0.9,14.2c-0.3,6.9-1.1,23.8,1.2,39.9c0.2,1.1,0.7,4.7,1.5,10.7c1.1,7.5,1.6,11.2,1.7,12.6c0.4,5.4,0,9.7-1,18.2	c-0.2,1.5-0.9,6.6-2.4,16.9c-0.4,2.6-0.6,3.8-1,5.7c-0.3,1.4-0.5,2.3-0.7,3.5c-0.3,1.7-0.5,3-0.5,3.3c-0.7,5.5-3.7,18.9-4.4,28.9	c-0.9,11.4-1.6,21.6,3.2,31.7c1.1,2.4,3.9,7.6,3.2,14c-0.2,1.8-0.7,5.6-3.7,8c-1.8,1.5-3.9,1.9-4.7,2c-2.6,0.5-4.6-0.1-6-0.4	c0,0-1.8-0.4-11.1-1.4c-5.5-0.5-5.6,0.4-20.3,1.5c-3.7,0.3-1.9,0.1-9,0.5c-1.7,0.1-6.7,0-16.8-0.3c-1.8-0.1-4-0.1-4.6-1.5	c-0.6-1.2,0.3-2.9,0.7-3.7c1-0.8,2.6-1.9,4.7-2.8c3.1-1.4,5.6-1.5,7.2-1.8c3.4-0.6,4.3-1.9,11.3-6.4c3.4-2.2,16.2-10.3,19.6-14.5	c1-1.3,1.4-2.4,1.5-2.8c0.5-1.8,0.2-3.2,0.1-3.9c-0.5-2.7-0.3-5.5-0.7-8.2c-0.7-4.4-0.7-9.1-1.4-22.5c-0.7-12.8-0.9-11.8-2-28.8	c-0.3-5.5-0.6-11.1-1.2-22.1c-1.8-33.8-1.5-32.2-2.1-38.4c-0.8-9.4-1.5-13.7-1.6-21.9c0-2.1,0-4.8-0.4-8.5	c-0.6-7.1-1.9-12.2-2.4-14.1c-0.8-3-1.5-4.7-2.6-7.7c0,0-2.9-8-6.1-19.2c-3-10.3-4.4-18.7-4.9-21.5c-3.2-19.8-2.2-35.4-1.8-40.1	c0.3-3.6,0.7-7.2,1.6-14.5c1.5-12.4,2.4-17.3,2.7-19.1c0.8-4.5,0.9-3.8,2.8-12.8c2.2-10.2,3.3-15.3,4-21.1c1-7.5,1.4-11.3,1.1-15.9	c-0.4-4.9-1.2-8-0.9-13.4c0.1-1.2,0.4-5.5,0.6-7.7c0.1-0.8,0.3-3.2,0.3-4.1c0.5-5.8,1.3-8.4,2.6-17c1-6.3,1-8.1,1-9.6	c0-3.2-0.5-5.7-0.8-7.5c-1.5-7.9-4-14.6-5.1-17.5c-5.1-14.2-4.2-15.5-9.8-30.3c-0.8-2.1-1.6-4.3-2.6-6.6c-0.9-2.2-1.7-3.9-1.9-4.4	c-1.3-2.8-4.4-10-12-28.1c1.7,0.6,4.1,1.5,6.7,2.9c3.3,1.7,5.6,3.4,6.5,4.2c38.7,29.4,56.3,13.6,68.7,14.8" class="st5"/><path d="M565.5,228.8c1.6-0.2,3-0.3,4.1-0.4c2.2-1.7,3.9-3.6,4.4-4.8c0.6-1.4,0.8-2.7,1.2-4.8c0.2-1.7,0.4-3.7,0.4-6.1	c-0.5-0.6-0.9-1.1-1.2-1.4c-0.5-0.6-0.8-0.8-1-1.2c-0.4-0.6-0.5-1.2-0.5-1.6c-0.4-2.7-0.8-5.4-1.2-8.1c-0.8,0.8-1.4,1-1.8,1	c-1.1,0-1.8-1.3-3.8-5.2c-1.4-2.7-2.1-4.1-2.2-4.5c0,0-1.8-4.8-0.7-10.1c0-0.2,0.1-0.5,0.4-0.8c0.7-0.9,2.2-0.8,2.9-0.7	c0.2,0.2,0.4,0.4,0.6,0.6c0.8,0.7,1.3,1.5,1.8,2.2c-0.2-1.8-0.4-4.5-0.5-7.7c-0.1-1.7-0.1-3.6,0-5.2c0.3-5,2.2-8.8,3.4-11.1	c2.2-4.3,4.9-9.6,10.9-12.8c5.4-2.9,11.4-2.6,14.2-2.6c2.9,0,8.5-0.3,13.9,2.6c6,3.2,8.7,8.5,10.9,12.8c1.2,2.3,3.1,6.1,3.4,11.1	c0.1,1.7,0.1,3.5,0,5.2c-0.1,3.2-0.3,5.8-0.5,7.7c0.4-0.7,1-1.5,1.8-2.2c0.2-0.2,0.4-0.4,0.6-0.5c0.6-0.1,2.2-0.2,2.9,0.7	c0.2,0.3,0.3,0.6,0.4,0.8c1,5.3-0.7,10.1-0.7,10.1c-0.2,0.4-0.8,1.7-2.2,4.5c-2,3.9-2.8,5.1-3.8,5.2c-0.4,0-1-0.1-1.8-1	c-0.4,2.7-0.8,5.4-1.2,8.1c0,0.4-0.2,1-0.5,1.6c-0.3,0.4-0.5,0.6-1,1.2c-0.3,0.3-0.7,0.8-1.1,1.4c0,2.4,0.2,4.4,0.4,6.1	c0.3,2.1,0.5,3.3,1.2,4.8c0.5,1.2,1.6,3,3.8,4.8c1.1,0.1,2.5,0.2,4.1,0.4" class="st6"/><path d="M646.3,233.2l-49.8,25l-49.7-25c0.8-0.3,8.5-2.7,12.6-3.5c0.8-0.1,2.2-0.4,4.5-0.7c0.4-0.1,1.3-0.2,2.4-0.4	c0.2,0,0.6-0.1,1.2-0.1c1.3-0.1,2-0.2,2.2-0.2c2.3-0.2,4.2-4.3,4.4-4.8c0.7-1.4,0.8-2.6,1.2-4.8c0.4-2.5,0.5-4.6,0.5-6.1	c1.6,1.6,3.3,3.3,5.3,4.9c3.1,2.6,6,4.6,8.8,6.3c0.7,0.3,1.7,0.6,2.8,0.8c1.5,0.3,3.1,0.3,4.2,0.2c1,0.1,2.3,0.1,3.8-0.2	c1.1-0.2,2-0.5,2.8-0.8c2.7-1.7,5.7-3.8,8.8-6.3c2-1.7,3.8-3.3,5.3-4.9c0,1.5,0.1,3.6,0.5,6.1c0.3,2.2,0.5,3.3,1.2,4.8	c0.2,0.5,2.1,4.5,4.4,4.8c0.3,0,1,0.1,2.2,0.2c0.6,0.1,1,0.1,1.2,0.1c1.1,0.1,2,0.3,2.4,0.4c2.3,0.4,3.7,0.6,4.5,0.7	C637.7,230.5,645.5,233,646.3,233.2z" class="st5"/><path d="M710,222.7c-10.1,5.3-17.1,11.3-21.5,15.7c-6.3,6.3-10.1,12-13.7,17.4c-2.5,3.8-7.2,10.8-11.5,20.7	c-4.1,9.4-3.2,10.8-7.1,18.3c-3.7,7.2-6.4,12.2-11.6,15.6c-9.4,6.1-21.1,3-24.9,1.7l-22.7-7.5l-22.7,7.5c-3.8,1.2-15.5,4.4-24.9-1.7	c-5.3-3.4-7.9-8.5-11.6-15.6c-3.9-7.5-3.1-8.9-7.1-18.3c-4.3-9.9-8.9-16.9-11.5-20.7c-3.5-5.3-7.4-11.1-13.7-17.4	c-4.4-4.4-11.4-10.4-21.5-15.7c4.6,1.3,8.4,2.2,11.2,2.8c4.7,1.1,6.2,1.2,7,1.2c3.8,0.2,4.6-0.4,9.8-0.8c1.4-0.1,5.4-0.3,10.4,0.1	c4.3,0.4,7.7,1,9.5,1.4c1.6,0.3,4,0.8,6.8,1.7c5.2,1.7,8.8,3.8,10.1,4.5c5.7,3.3,23.1,12.2,47.6,24.6l2.3-1.2	c24.7-12.5,40.5-20.1,46.3-23.4c1.3-0.7,4.9-2.9,10.1-4.5c2.7-0.9,5.2-1.4,6.8-1.7c1.9-0.4,5.2-1.1,9.5-1.4c5-0.4,9-0.2,10.4-0.1	c5.2,0.4,6,1,9.8,0.8c0.9-0.1,2.3-0.2,7-1.2C701.6,224.9,705.4,224,710,222.7z" class="st6"/><rect width="648.3" height="648.3" x="273.6" y="141.4" class="st7"/><circle cx="597.8" cy="404.4" r="385.3" class="st8"/><g><path d="M630.7,146.1c1.4-1.5,3.1-1.4,4.8-1.1c-2-1-4-0.9-6,0.1c0.1-0.2,0.2-0.4,0.3-0.5c1.6-2.1,2.2-5.3,0.2-7.8 c-1-1.3-2-2.6-3-3.9c-0.4-0.6-0.9-1.2-0.4-2.1c-0.3,0-0.7,0-0.7,0.1c-0.2,0.5-0.3,1.1-0.4,1.7c-1.2-0.7-2.7-1-3.4-2.6v1.3 c-0.4-0.1-0.6-0.2-0.9-0.3c-1.4-0.6-2.7-1.3-4.1-1.9c-1.2-0.5-1.1-0.5-0.9-1.7c0.1-0.5,0.1-1,0.2-1.6c-0.1,0-0.2,0-0.3-0.1 c-0.4,0.7-0.8,1.5-1.2,2.4c-0.4-0.7-0.6-1.2-0.9-1.7c-0.2,0.2-0.4,0.4-0.5,0.6c-1.3-1-2.6-1.6-4.3-1.4c0.9,0.5,1.2,1.3,1,2.2 c-2.5-1.2-3.2-1.3-4.7-0.5c0.8,0.5,2.1-0.1,2.6,1.1c-0.4-0.1-0.7-0.1-1-0.2c-1.8-0.6-3.6-0.6-5.4-0.4c-1.3,0.1-2.6,0.2-3.9,0.4 c-5.3,0.6-10.6,1.5-15.8,2.8c-7.2,1.7-13,5.5-17.1,11.8c-0.9,1.3-1.5,2.8-2.5,4c-3,3.8-5.1,8.1-6.4,12.8c-0.1,0.3,0,0.5,0,0.8h0.1 c0.5-1.2,1-2.5,1.5-3.7c0,0.7-0.3,1.4-0.3,2.2c-0.1,2,0.6,3.8,1.7,5.4c1.1,1.7,1.2,1.6,0,2.5c-0.1,0.1-0.1,0.2-0.1,0.3 c0.8-0.4,1.5-0.8,2.2-1.1c1.2,1.2,1.3,3.2,2.8,4.3c-0.1-0.4-0.2-0.6-0.3-0.8c0.1,0,0.2-0.1,0.3-0.1c0.3,0.4,0.5,0.8,0.8,1.2 c-0.1,0.1-0.1,0.2-0.1,0.2c-0.7-0.1-1.4-0.2-2.1-0.3c0,0.1-0.1,0.2-0.1,0.3c0.5,0.3,0.9,0.7,1.4,0.8c0.6,0.1,0.9,0.4,1,1 c0.1,1.2,1.2,2.7,1.8,6.4c0.1,0.5,0.9,2.4,0.9,3.4c0.2,0.4,0.2,0.5,0.4,0.6s0.5,0.4,0.7,0.3c0.2-0.1,0.3-0.9,0.3-1.1 c0.2-1.3,0.3-2.5,0.4-3.8c0.3-2,0.6-4.1,0.9-6.1c0.1-1,0.2-1.2,1.4-1c0,1.8,0.2,3.6,1.2,5.2c0.1-0.3,0.1-0.5,0.1-0.8 c-0.1-1.3-0.1-2.7-0.2-4c0-0.6,0.3-0.9,0.8-0.9c0.4,0,0.7-0.1,1.1-0.1c2.8,0.4,5.4-0.4,7.7-1.9c0.2-0.1,0.5-0.3,0.7-0.4 c0,0.1,0,0.1,0.1,0.2c-2.8,2.1-5.9,3.3-9.4,3.7c3.2,0.8,6-0.4,8.8-1.9c-1.2,1.4-2.3,2.8-3.4,4.1l0.2,0.2c0.3-0.2,0.6-0.4,0.9-0.7 c1.4-1.4,2.8-2.9,4.3-4.3c1.1-1.1,1.6-1.1,2.9-0.4c1.4,0.8,2.8,1.2,4.4,1c1.1-0.2,2.2-0.4,3.3-0.6c-1.6,0.8-3.2,1.2-4.9,1.2 s-3.4-0.2-5.3-0.2c0.3,0.2,0.5,0.5,0.8,0.6c1,0.3,1.9,0.6,2.9,0.6c4.2,0,8.1-1.4,11.5-3.9c3.1-2.3,5.5-5.3,7.4-8.7 c0.7-1.3,1.7-2.5,2.9-3.4c0.2-0.1,0.2-0.4,0.4-0.7c1.7,0.2,3.4,0.4,5.1,0.7c3.5,0.6,5.5,2.8,6.2,6.2c0.1,0.4,0.1,0.9,0,1.3 c-0.2,1.8-0.6,3.6-0.7,5.4c-0.1,1,0.1,2.1,0.5,3c0.5,1,0.7,2,0.8,3c0.1,0.6,0.1,1.2,0.2,1.7c0.4,2,0.9,4,0.6,6.1 c0,0.4-0.1,0.7-0.1,1.3c1.2-0.8,1.6-0.7,2.1-2.1c0.7-2.1,2-4.7,2.5-6.9c1.6-6.5,4-12.8,4-19.7c0-1.5,0.1-3.1,0.2-4.6 c0.1-1.4,0.1-2.8-1-4c1.2-0.9,2.5-0.9,3.9-0.9c-0.7-0.2-1.4-0.4-2.1-0.3C632.1,145.5,631.5,145.9,630.7,146.1z M559.2,163.8 c-0.3-0.7-0.6-1.4-0.9-2c0.1,0,0.1-0.1,0.2-0.1c0.3,0.6,0.7,1.3,1,2C559.4,163.7,559.3,163.7,559.2,163.8z M559,158.6 c0.7,1.2,0.2,2.5,0.6,3.8C558.7,161.3,558.4,159.7,559,158.6z M560.3,165.7c-0.2-0.6-0.3-1.1-0.5-1.6c0.1,0,0.2-0.1,0.2-0.1 C560.4,164.5,561,164.9,560.3,165.7z M561.7,165.5c0.1-0.3,0.3-0.4,0.5-0.7c0.5,1.5,1,2.8,1.4,4.1 C563.2,168.7,561.6,166,561.7,165.5z M564.8,168.6c0,0.1-0.1,0.3-0.3,0.4c-0.1,0-0.4-0.1-0.4-0.2c-0.3-1-0.8-2-0.9-3.1 c-0.1-0.9,0.4-1.1,1.8-1C565,166,564.9,167.3,564.8,168.6z M572.8,164.3c-0.4,1.3-1.4,2.4-2.6,2.8 C570,165.2,572.1,165.3,572.8,164.3z M571.8,169.6c-0.2,0.4-0.8,0.5-1.2,0.8c-0.1,0-0.1,0-0.2,0.1c-0.4-1.7-0.3-2,0.9-2.8 c0.6-0.4,1.2-0.8,1.8-1.2c0,0,0,0,0.1,0C572.7,167.6,572.4,168.7,571.8,169.6z M573.6,168.8c-0.1-0.1-0.1-0.1-0.2-0.2 c0.8-1.1,1.6-2.1,2.9-2.6c0,0.1,0.1,0.1,0.2,0.2C575.5,167,574.6,167.9,573.6,168.8z M575.7,169.9c1.3-0.7,2.6-1.5,3.9-2.2 c0.6-0.4,1.2-0.2,1.7,0.1C580.6,168.9,577.3,170,575.7,169.9z M581.5,166.5c0.7-0.4,1.3-0.9,2-1.3 C583.3,166.6,582.4,167.2,581.5,166.5z M587.8,166.5c1.3-0.5,2.5-1,3.8-1.5c0,0.1,0.1,0.3,0.1,0.4c-1.3,0.5-2.5,1-3.8,1.5 C587.9,166.8,587.9,166.6,587.8,166.5z M598.3,165.9c-0.1,0.1-0.2,0.3-0.3,0.4c-0.1,0.1-0.2,0.3-0.3,0.4c-0.2,0.2-0.5,0.5-0.8,0.7 s-0.6,0.4-0.9,0.6c-0.3,0.1-0.5,0.3-0.8,0.4c-0.3,0.1-0.5,0.2-0.8,0.3s-0.5,0.2-0.8,0.3s-0.6,0.1-0.8,0.2c-0.4,0.1-0.7,0.1-1.1,0.1 c-1,0.1-2,0-2.8-0.4c0.5-0.1,1.1-0.1,1.6-0.3c0.5-0.1,1.1-0.2,1.6-0.4h0.1c0.5-0.1,1.1-0.3,1.6-0.5c0.6-0.2,1.2-0.4,1.8-0.7 c0.1-0.1,0.3-0.1,0.4-0.2c0.2-0.1,0.3-0.2,0.4-0.2c0.3-0.1,0.6-0.3,0.9-0.4c0.4-0.2,0.8-0.4,1.1-0.6 C598.5,165.7,598.4,165.8,598.3,165.9z M612.3,129.2c-0.4-0.7-0.8-1.5-1.3-2.2c0.2-0.1,0.3-0.1,0.5-0.2l1.1,2.3 C612.5,129.1,612.4,129.2,612.3,129.2z"/><path d="M620.3,178.9c-1.5-0.3-3-0.7-4.6-0.8c-2.8-0.2-5.7-0.3-8.5-0.3c-2.5,0-4.9,0.3-7.3,1.2c-2.6,1.1-5.3,1-7.9,0.1 c-3.1-1.1-6.2-1.4-9.5-1.3c-2.3,0-4.6,0.1-6.9,0.3c-1.5,0.1-3,0.4-4.4,0.7c-1.1,0.2-2,1.4-1.9,2.5c0.2,2.3,0.6,4.6,1.7,6.6 c1.2,2.3,3.1,3.7,5.8,3.7c3,0,6,0,9,0c1.5,0,2.8-0.5,3.9-1.6c1.5-1.4,2.3-3.3,3.2-5.1c0.3-0.6,0.8-1.2,1.3-1.7 c1.1-1.1,3.1-0.7,3.8,0.7s1.4,2.9,2.3,4.3c1.4,2.3,3.3,3.6,6.1,3.4c1.2-0.1,2.4,0,3.7,0l0,0c1.5,0,3.1,0,4.6,0c2,0,3.6-0.8,4.8-2.3 c1.9-2.4,2.4-5.2,2.6-8.2C622.1,180,621.5,179.2,620.3,178.9z M592.9,182.7c-1.2,2.6-2.3,5.2-4.5,7.2c-0.9,0.8-1.9,1.3-3.1,1.3 h-3.8v-0.1c-1.5,0-3,0.1-4.5,0c-1.3-0.1-2.4-0.6-3.3-1.3c-0.2-0.2-0.4-0.4-0.7-0.6c-0.6-0.6-1.2-1.3-1.7-2.2 c-1-1.6-1.4-3.5-1.4-5.4c0-1.3,0.5-2,1.7-2.2c1-0.2,2-0.4,3-0.5c3.3-0.2,6.5-0.4,9.8-0.5c1.9,0,3.7,0.4,5.6,0.7 c1.2,0.2,2.2,0.9,2.7,2.1C592.9,181.7,593.1,182.4,592.9,182.7z M615.9,190.8c-1,0.4-2.2,0.4-3.3,0.4c-0.9,0.1-1.8,0-2.7,0 c-1.1,0-2.1-0.1-3.2,0c-2.2,0.1-3.7-0.9-4.8-2.6c-1.2-1.8-2.2-3.8-3.2-5.7c-0.2-0.4-0.1-1.2,0.1-1.7c0.7-1.4,2.1-2,3.5-2.3 c3.3-0.7,6.6-0.6,9.9-0.4c2.4,0.2,4.9,0.6,7.3,0.9c1.5,0.2,2,0.9,2,2.4C621.5,185.9,619.3,189.5,615.9,190.8z"/><path d="M598.6,165.5L598.6,165.5c-0.4,0.3-0.8,0.5-1.2,0.7C597.8,166,598.2,165.8,598.6,165.5z" class="st2"/><path d="M570.6,170.4c-0.1,0-0.1,0.1-0.2,0.1l0,0C570.4,170.4,570.5,170.4,570.6,170.4z" class="st2"/><path d="M611.5,126.8c0.4,0.8,0.7,1.5,1.1,2.3c-0.1,0.1-0.2,0.1-0.3,0.2c-0.4-0.7-0.8-1.5-1.3-2.2 C611.1,126.9,611.3,126.9,611.5,126.8z" class="st2"/></g><g><path d="M323.2,153.8c-4.1,6.1-10,10-10,10s-2.2,1.2-3,1.3c-0.7,0.1-3.3,1.1-3.7,1.2c-0.4,0.1-1.3-0.1-1.3-0.1 c-5,3.2-5.8,9.3-5.7,9.5c0.1,0.2,0.8,1.2,0.8,1.2c2.6,9.4,11.4,21.5,11.4,21.5c6.5,8,12.3,13.1,15.5,9.7c3.2-3.3,3.6-4.3,4.1-12.7 s5.7-13.8,7.9-15.7c2.2-1.9,6.2-7.5,16.4-7.8c10.2-0.3,12-4.1,12.6-5.6s-0.8-8.8-15.4-17.5s-16.3-8-16.3-8 c-0.1-0.1-1.3-0.8-1.3-0.8c-6.7,0.8-9.4,5.7-9.4,5.7s0.1,1.3,0.2,1.5c0,0.3-0.8,1.9-1.3,3.6C324.1,152.4,323.2,153.8,323.2,153.8z" class="st9"/><path d="M300.3,176.8c0,0-0.7-1-0.8-1.2c-0.1-0.2,0.7-6.3,5.7-9.5c0,0,0.9,0.2,1.3,0.1 C306.5,166.3,301.3,169.7,300.3,176.8z" class="st10"/><path d="M336.4,140.8c0.2,0-1.3-0.8-1.3-0.8c-6.7,0.8-9.4,5.7-9.4,5.7s0.1,1.3,0.2,1.5 C325.9,147.2,329.3,141.7,336.4,140.8z" class="st10"/><path d="M320.4,168.7c0.5,0.5,0.5,1.4-0.1,1.9L320,171c-0.6,0.5-1.4,0.6-1.9,0.1l0,0c-0.5-0.5-0.5-1.4,0.1-1.9 l0.4-0.4C319,168.2,319.9,168.2,320.4,168.7L320.4,168.7z" class="st11"/><path d="M330.6,158.5c0.5,0.5,0.5,1.4-0.1,1.9l-0.4,0.4c-0.5,0.6-1.4,0.6-1.9,0.1l0,0c-0.5-0.5-0.5-1.4,0.1-1.9 l0.4-0.4C329.2,158,330,158,330.6,158.5L330.6,158.5z" class="st11"/><g><ellipse cx="334.2" cy="147" class="st12" rx="2.3" ry="2.3"/><ellipse cx="334.2" cy="154.4" class="st13" rx="2.3" ry="2.3"/><ellipse cx="341.7" cy="154.3" class="st14" rx="2.3" ry="2.3"/><ellipse cx="341.6" cy="147" class="st15" rx="2.3" ry="2.3"/></g><g><ellipse cx="324.3" cy="164.8" class="st16" rx="4.3" ry="4.3"/><path d="M326.8,162.3c1.4,1.4,1.4,3.6,0,5s-3.5,1.3-4.9-0.1c-1.4-1.4-1.5-3.5-0.1-4.9 C323.2,160.9,325.4,160.9,326.8,162.3z" class="st11"/></g><g><ellipse cx="309.8" cy="178.6" class="st11" rx="6.8" ry="6.8"/><ellipse cx="309.8" cy="178.5" class="st17" rx="4.7" ry="4.5" transform="matrix(-0.7073 0.7069 -0.7069 -0.7073 655.0701 85.8348)"/><g><circle cx="307.8" cy="176.6" r=".3" class="st9"/><circle cx="307.8" cy="180.4" r=".3" class="st9"/><circle cx="311.6" cy="180.4" r=".3" class="st9"/><circle cx="311.6" cy="176.6" r=".3" class="st9"/></g></g><g><ellipse cx="339.2" cy="166.4" class="st11" rx="6.8" ry="6.8"/><path d="M342.4,163.1c1.7,1.7,1.7,4.6-0.1,6.5c-1.8,1.8-4.5,1.7-6.3,0c-1.7-1.8-1.9-4.5,0-6.3 C337.8,161.4,340.7,161.4,342.4,163.1z" class="st17"/><g><circle cx="337.4" cy="164.3" r=".3" class="st9"/><circle cx="337.4" cy="168.1" r=".3" class="st9"/><circle cx="341.1" cy="168" r=".3" class="st9"/><circle cx="341.1" cy="164.3" r=".3" class="st9"/></g></g><g><ellipse cx="324.9" cy="180" class="st11" rx="7.3" ry="7.3"/><path d="M328.8,176.2c2.1,2.1,2.1,5.6-0.1,7.8s-5.5,2.1-7.6-0.1c-2.1-2.1-2.3-5.4-0.1-7.6 C323.2,174.1,326.7,174,328.8,176.2z" class="st17"/><path d="M320.2,182.7c0,0,1.9-1.8,1.8-2.4c-0.1-0.6-0.4-1.3-1.9-2.6c0,0,0.8-1.8,2.5-2.4c0,0,1.2,1.5,2,1.7 s0.9,0.3,3-1.7c0,0,1.6,0.8,2.3,2.5c0,0-0.8,0.6-1.6,1.8c-0.8,1.2,1.3,2.8,1.5,3c0,0-0.5,1.5-2.5,2.5c0,0-1.4-1.7-2.4-1.7 c0,0-0.5-0.2-2.3,1.7C322.6,185,321.2,184.6,320.2,182.7z" class="st18"/></g></g><g><path d="M868.6,145.9l-36.5,13.8c8.2,16.5,16.5,33,24.7,49.5l25.9-9.8C878,181.5,873.3,163.7,868.6,145.9z M875.7,178.4c-1.2,0.5-2.4,0.9-3.7,1.4c-6.8,2.6-13.6,5.2-20.5,7.7c-1.1,0.4-2.2,0.8-3.4,1.3c-0.3,0.1-0.4,0.1-0.5-0.2 c-1.8-3.5-3.5-7-5.3-10.6c-0.5-1-1-2.1-1.6-3.1c-0.1-0.1-0.1-0.3-0.2-0.4l31.3-11.8c0.2,0.6,0.3,1.1,0.5,1.7c0.8,3,1.6,6.1,2.4,9.1 c0.4,1.5,0.8,3,1.2,4.5C876,178.2,875.9,178.3,875.7,178.4z" class="st19"/><path d="M875.7,178.4c-1.2,0.5-2.4,0.9-3.7,1.4c-6.8,2.6-13.6,5.2-20.5,7.7c-1.1,0.4-2.2,0.8-3.4,1.3 c-0.3,0.1-0.4,0.1-0.5-0.2c-1.8-3.5-3.5-7-5.3-10.6c-0.5-1-1-2.1-1.6-3.1c-0.1-0.1-0.1-0.3-0.2-0.4l31.3-11.8 c0.2,0.6,0.3,1.1,0.5,1.7c0.8,3,1.6,6.1,2.4,9.1c0.4,1.5,0.8,3,1.2,4.5C876,178.2,875.9,178.3,875.7,178.4z" class="st2"/><path d="M869.3,142.9c-0.2,0.5-0.6,0.9-1.2,1.1c-6.1,2.3-12.3,4.6-18.4,6.9c-6.1,2.3-12.2,4.6-18.3,6.9c-1.2,0.5-2.2-0.1-2.7-0.9 c-0.7-1-0.7-2.4,0.1-3.1c0.2-0.3,0.6-0.4,0.9-0.6c5.4-2.1,10.9-4.1,16.3-6.2c6.7-2.5,13.5-5.1,20.2-7.6c1.1-0.4,1.9-0.3,2.6,0.5 C869.4,140.8,869.7,142,869.3,142.9z"/><path d="M865.4,137.6L829,151.3c-0.3-0.7-0.3-1.3-0.2-2c0.4-1.8,1.5-2.9,3.1-3.5c1.7-0.7,3.4-1.3,5.1-1.9 c7.5-2.8,14.9-5.6,22.4-8.4c1.6-0.6,3.1-0.6,4.5,0.4C864.6,136.2,865.1,136.8,865.4,137.6z"/><path d="M863.5,171.6c-0.4-0.9-1-1.7-1.8-2.1c-1.3-0.7-2.7-0.5-3.9,0.2c-1.7,1-2.7,2.5-3.4,4.3 c-0.8,2-0.9,4.1-0.4,5.8c1.3,3.5,4.2,4.3,6.7,2.2c1.2-1,2.1-2.2,2.7-3.7C864.2,176.1,864.4,173.8,863.5,171.6z M860.5,171.6 c-0.7,1-0.9,2.1-1,3.2c-0.1,1-0.1,2-0.4,2.9c-0.3,1.3-1,2.4-2.1,3.1c-0.2,0.1-0.4,0.2-0.6,0.3c0,0,0-0.1-0.1-0.1 c0.1-0.1,0.1-0.2,0.2-0.3c1.3-1.4,1.8-3.1,1.8-5c0-1,0.1-2,0.5-3c0.3-0.8,0.9-1.4,1.6-1.9c0.1-0.1,0.2-0.1,0.3-0.1 C860.8,171.1,860.7,171.4,860.5,171.6z" class="st19"/><path d="M856.5,181.1c0.1-0.1,0.1-0.2,0.2-0.3c1.3-1.4,1.8-3.1,1.8-5c0-1,0.1-2,0.5-3c0.3-0.8,0.9-1.4,1.6-1.9 c0.1-0.1,0.2-0.1,0.3-0.1c-0.2,0.2-0.3,0.5-0.5,0.7c-0.7,1-0.9,2.1-1,3.2c-0.1,1-0.1,2-0.4,2.9c-0.3,1.3-1,2.4-2.1,3.1 C856.9,181,856.7,181.1,856.5,181.1C856.5,181.2,856.5,181.1,856.5,181.1z" class="st2"/></g><path d="M350.1,181.2c-0.6-0.4-3.1-2.1-3.8-3.4c-1.3-2.2-0.3-6.4-0.2-7.2c-0.7-0.4-2.6-2-3.7-3c-0.8-0.8-3.4-4-2.6-6.1	c0.1-0.4,0.5-1,1.5-1.5c1.8,2.6,5.3,4.1,6.6,4.9c1.4,0.7,1.8,0.4,3.8,1.5c0.9,0.5,3,2,4.8,3.8c2.8,2.8,2.9,6.1,3.4,8.3" class="st4"/><path d="M842.4,182.6c0.6-0.4,2.8-3.1,3.5-4.3c1.3-2.2,1.4-6.5,1.3-7.3c0.7-0.4,2.6-2,3.7-3c0.8-0.8,3.4-4,2.6-6.1	c-0.1-0.4-0.5-1-1.5-1.5c-1.8,2.6-5.3,4.1-6.6,4.9c-1.4,0.7-1.8,0.4-3.8,1.5c-0.9,0.5-3,2-4.8,3.8c-2.8,2.8-2.9,6.1-3.4,8.3" class="st4"/><path d="M872.2,156.3c-1.5,0.3-2.2,0.6-2.5,0.7c0,0-0.1,0-0.2,0.1c-0.1,0.1-0.4,0.2-1,0.5c-2.3,1.1-3.2,2.5-3.6,3.2	c-0.3,0.6-0.7,1.3-0.4,1.9c0.4,0.8,2,0.8,2.8,0.7c2-0.1,3.5-0.8,3.6-0.9l0,0l-1,0.4c0,0.1,1.9-0.5,4-1.1c0.2-0.3,0.6-0.8,0.8-1.5	c0.2-0.8,0.1-1.4,0-1.7c-0.2-0.8-0.5-1.3-0.7-1.6" class="st4"/><path d="M873.2,162.9c-1.9,0.4-2.7,0.7-3.1,0.9c0,0-0.1,0.1-0.2,0.1c-0.2,0.1-0.5,0.2-1.3,0.5c-2.9,1.2-3.3,1.4-3.8,2.2	c-0.5,0.6-1.1,2.1-0.8,2.7c0.4,0.8,1.9,1.1,2.8,1c2.5-0.2,4.1-1.1,4.2-1.1l0,0c0,0-1.3,0.4-1.3,0.5s2.3-0.6,5-1.4	c0.3-0.3,0.8-0.8,1.1-1.6s0.2-1.4,0.2-1.7c-0.1-0.7-0.5-1.2-0.7-1.5" class="st4"/><path d="M874.7,169.4c-1.5,0.3-2.2,0.6-2.5,0.7c0,0-0.1,0-0.2,0.1c-0.1,0.1-0.4,0.2-1,0.5c-2.3,1.1-3.4,2.4-3.8,3.1	c-0.4,0.5-0.8,1.2-0.5,1.8c0.4,0.8,2.1,0.6,2.8,0.6c2.1-0.1,3.6-0.9,3.7-0.9l0,0l-1,0.4c0,0,1.9-0.5,4.1-1.1	c0.2-0.3,0.6-0.8,0.8-1.5s0.1-1.3,0.1-1.6c-0.1-0.7-0.5-1.2-0.7-1.5" class="st4"/><path d="M876.4,175.7c-1.1,0.3-1.7,0.4-1.9,0.6c0,0-0.1,0-0.2,0.1c-0.1,0.1-0.3,0.1-0.8,0.3c-1.8,0.8-2.6,1.7-2.9,2.2	c-0.3,0.4-0.6,0.9-0.4,1.2c0.3,0.5,1.5,0.4,2.1,0.4c1.5-0.1,2.7-0.7,2.8-0.7l0,0l-0.8,0.3c0,0,1.4-0.4,3.1-0.9	c0.2-0.2,0.5-0.5,0.6-1c0.2-0.5,0.1-0.9,0.1-1.1c-0.1-0.5-0.3-0.8-0.5-1" class="st4"/><path d="M325.2,147.9c1.4,0.6,2,1,2.3,1.2c0,0,0.1,0.1,0.2,0.1c0.1,0.1,0.3,0.3,0.9,0.7c2,1.5,2.6,3.1,2.9,3.9	c0.2,0.6,0.5,1.4,0,1.9c-0.6,0.7-2.2,0.3-2.8,0.1c-2-0.5-3.3-1.5-3.3-1.6l0,0l0.9,0.6c0,0-1.7-0.8-3.7-1.9c-0.2-0.3-0.4-0.9-0.4-1.7	s0.2-1.4,0.4-1.7c0.3-0.7,0.7-1.2,1-1.4" class="st4"/><path d="M322.2,154.7c1.5,1.1,2.2,1.7,2.5,2c0,0,0.1,0.1,0.2,0.2c0.1,0.1,0.4,0.4,1,1c2.2,2.3,2.5,2.5,2.7,3.5	c0.2,0.7,0.2,2.4-0.3,2.8c-0.7,0.5-2.2,0.3-3-0.1c-2.2-1.2-3.4-2.6-3.5-2.7l0,0l1,0.9c0,0-1.9-1.5-4.1-3.2c-0.2-0.4-0.4-1.1-0.4-1.9	c0-0.8,0.3-1.4,0.5-1.6c0.4-0.6,0.9-1,1.3-1.1" class="st4"/><path d="M317.2,159.5c1.2,1,1.7,1.6,1.9,1.9c0,0,0.1,0.1,0.1,0.2c0.1,0.1,0.3,0.3,0.7,0.9c1.5,2,1.8,3.7,1.9,4.6	c0.1,0.6,0.1,1.5-0.4,1.8c-0.7,0.5-2.1-0.4-2.7-0.8c-1.8-1.1-2.7-2.5-2.8-2.6l0,0l0.7,0.8c0,0-1.4-1.3-3-2.9c-0.1-0.3-0.2-1,0-1.7	s0.5-1.2,0.7-1.4c0.5-0.6,1-0.8,1.3-1" class="st4"/><path d="M312.2,163.2c0.7,0.9,1,1.4,1.1,1.7c0,0,0,0.1,0.1,0.2c0.1,0.1,0.1,0.3,0.4,0.8c0.8,1.7,0.8,3,0.7,3.6	c0,0.5-0.1,1.1-0.5,1.2c-0.6,0.2-1.4-0.7-1.8-1.1c-1.1-1.1-1.6-2.3-1.6-2.3l0,0l0.4,0.7c0,0-0.8-1.2-1.8-2.7c0-0.3,0-0.7,0.2-1.2	s0.5-0.8,0.7-0.9c0.4-0.3,0.8-0.4,1-0.5" class="st4"/></svg>